<?xml version="1.0" encoding="utf-8"?>
<!-- Generator: Adobe Illustrator 22.1.0, SVG Export Plug-In . SVG Version: 6.00 Build 0)  -->
<svg version="1.1" id="Layer_1" xmlns="http://www.w3.org/2000/svg" xmlns:xlink="http://www.w3.org/1999/xlink" x="0px" y="0px"
	 viewBox="0 0 95.6 93.1" style="enable-background:new 0 0 95.6 93.1;" xml:space="preserve">
<style type="text/css">
	.st0{fill:none;stroke:#FF0D00;stroke-width:3;stroke-miterlimit:10;}
	.st1{fill:none;stroke:#17E1FF;stroke-width:3;stroke-miterlimit:10;}
</style>
<g>
	<path class="st0" d="M13.6,18.5c4-0.7,9.7-1.2,17.7-1.2c8.1,0,13.8,1.5,17.7,4.6c3.7,2.9,6.2,7.7,6.2,13.4S53.3,45.8,49.9,49
		c-4.5,4.2-11.1,6.1-18.8,6.1c-1.7,0-3.3-0.1-4.5-0.3v20.7h-13C13.6,75.5,13.6,18.5,13.6,18.5z M26.5,44.7C27.6,45,29,45,30.9,45
		c7,0,11.2-3.5,11.2-9.4c0-5.3-3.7-8.5-10.2-8.5c-2.7,0-4.5,0.3-5.4,0.5C26.5,27.6,26.5,44.7,26.5,44.7z"/>
	<path class="st1" d="M45,62c3.5,1.8,8.9,3.6,14.5,3.6c6,0,9.2-2.5,9.2-6.3c0-3.6-2.7-5.7-9.7-8.2c-9.6-3.3-15.9-8.7-15.9-17.1
		c0-9.9,8.2-17.4,21.9-17.4c6.5,0,11.3,1.4,14.8,2.9l-2.9,10.6c-2.3-1.1-6.4-2.7-12.1-2.7S56.4,30,56.4,33c0,3.7,3.3,5.3,10.7,8.2
		c10.2,3.8,15,9.1,15,17.2c0,9.7-7.5,17.9-23.3,17.9c-6.6,0-13.1-1.7-16.4-3.5L45,62z"/>
</g>
</svg>
